<svg width="613" height="115" viewBox="0 0 613 115" fill="none" xmlns="http://www.w3.org/2000/svg">
<path d="M52.6719 61.9336H68.7852C68.3555 67.6367 66.7734 72.6953 64.0391 77.1094C61.3047 81.4844 57.4961 84.9219 52.6133 87.4219C47.7305 89.9219 41.8125 91.1719 34.8594 91.1719C29.5078 91.1719 24.6836 90.2344 20.3867 88.3594C16.1289 86.4453 12.4766 83.7305 9.42969 80.2148C6.42188 76.6602 4.11719 72.4023 2.51562 67.4414C0.914062 62.4414 0.113281 56.8359 0.113281 50.625V44.1211C0.113281 37.9102 0.933594 32.3047 2.57422 27.3047C4.21484 22.3047 6.55859 18.0469 9.60547 14.5312C12.6914 10.9766 16.3828 8.24219 20.6797 6.32812C25.0156 4.41406 29.8594 3.45703 35.2109 3.45703C42.1641 3.45703 48.043 4.74609 52.8477 7.32422C57.6523 9.86328 61.3828 13.3594 64.0391 17.8125C66.6953 22.2656 68.2969 27.3828 68.8438 33.1641H52.7305C52.418 29.5703 51.6367 26.5234 50.3867 24.0234C49.1758 21.5234 47.3398 19.6289 44.8789 18.3398C42.457 17.0117 39.2344 16.3477 35.2109 16.3477C32.0859 16.3477 29.332 16.9336 26.9492 18.1055C24.6055 19.2773 22.6523 21.0352 21.0898 23.3789C19.5273 25.6836 18.3555 28.5742 17.5742 32.0508C16.793 35.4883 16.4023 39.4727 16.4023 44.0039V50.625C16.4023 54.9609 16.7539 58.8477 17.457 62.2852C18.1602 65.7227 19.2539 68.6328 20.7383 71.0156C22.2227 73.3984 24.1367 75.2148 26.4805 76.4648C28.8242 77.7148 31.6172 78.3398 34.8594 78.3398C38.8047 78.3398 42.0078 77.7148 44.4688 76.4648C46.9688 75.2148 48.8633 73.3789 50.1523 70.957C51.4805 68.5352 52.3203 65.5273 52.6719 61.9336ZM77.3398 58.9453V57.7148C77.3398 53.0664 78.0039 48.7891 79.332 44.8828C80.6602 40.9375 82.5938 37.5195 85.1328 34.6289C87.6719 31.7383 90.7773 29.4922 94.4492 27.8906C98.1211 26.25 102.301 25.4297 106.988 25.4297C111.754 25.4297 115.973 26.25 119.645 27.8906C123.355 29.4922 126.48 31.7383 129.02 34.6289C131.559 37.5195 133.492 40.9375 134.82 44.8828C136.148 48.7891 136.812 53.0664 136.812 57.7148V58.9453C136.812 63.5547 136.148 67.832 134.82 71.7773C133.492 75.6836 131.559 79.1016 129.02 82.0312C126.48 84.9219 123.375 87.168 119.703 88.7695C116.031 90.3711 111.832 91.1719 107.105 91.1719C102.418 91.1719 98.2188 90.3711 94.5078 88.7695C90.7969 87.168 87.6719 84.9219 85.1328 82.0312C82.5938 79.1016 80.6602 75.6836 79.332 71.7773C78.0039 67.832 77.3398 63.5547 77.3398 58.9453ZM92.8086 57.7148V58.9453C92.8086 61.7188 93.082 64.3164 93.6289 66.7383C94.1758 69.1602 95.0156 71.2891 96.1484 73.125C97.2812 74.9609 98.7461 76.4062 100.543 77.4609C102.379 78.4766 104.566 78.9844 107.105 78.9844C109.605 78.9844 111.754 78.4766 113.551 77.4609C115.348 76.4062 116.812 74.9609 117.945 73.125C119.117 71.2891 119.977 69.1602 120.523 66.7383C121.07 64.3164 121.344 61.7188 121.344 58.9453V57.7148C121.344 54.9805 121.07 52.4219 120.523 50.0391C119.977 47.6172 119.117 45.4883 117.945 43.6523C116.812 41.7773 115.328 40.3125 113.492 39.2578C111.695 38.1641 109.527 37.6172 106.988 37.6172C104.488 37.6172 102.34 38.1641 100.543 39.2578C98.7461 40.3125 97.2812 41.7773 96.1484 43.6523C95.0156 45.4883 94.1758 47.6172 93.6289 50.0391C93.082 52.4219 92.8086 54.9805 92.8086 57.7148ZM164.469 0V90H148.941V0H164.469ZM195.641 0V90H180.113V0H195.641ZM238.883 91.1719C234.078 91.1719 229.762 90.3906 225.934 88.8281C222.105 87.2656 218.844 85.0977 216.148 82.3242C213.492 79.5117 211.441 76.25 209.996 72.5391C208.59 68.7891 207.887 64.7656 207.887 60.4688V58.125C207.887 53.2422 208.59 48.8086 209.996 44.8242C211.402 40.8008 213.395 37.3438 215.973 34.4531C218.551 31.5625 221.637 29.3359 225.23 27.7734C228.824 26.2109 232.789 25.4297 237.125 25.4297C241.617 25.4297 245.582 26.1914 249.02 27.7148C252.457 29.1992 255.328 31.3086 257.633 34.043C259.938 36.7773 261.676 40.0586 262.848 43.8867C264.02 47.6758 264.605 51.875 264.605 56.4844V62.9883H214.918V52.3242H249.371V51.1523C249.293 48.6914 248.824 46.4453 247.965 44.4141C247.105 42.3438 245.777 40.7031 243.98 39.4922C242.184 38.2422 239.859 37.6172 237.008 37.6172C234.703 37.6172 232.691 38.125 230.973 39.1406C229.293 40.1172 227.887 41.5234 226.754 43.3594C225.66 45.1562 224.84 47.3047 224.293 49.8047C223.746 52.3047 223.473 55.0781 223.473 58.125V60.4688C223.473 63.125 223.824 65.5859 224.527 67.8516C225.27 70.1172 226.344 72.0898 227.75 73.7695C229.195 75.4102 230.914 76.6992 232.906 77.6367C234.938 78.5352 237.242 78.9844 239.82 78.9844C243.062 78.9844 245.992 78.3594 248.609 77.1094C251.266 75.8203 253.57 73.9258 255.523 71.4258L263.316 79.5117C261.988 81.4648 260.191 83.3398 257.926 85.1367C255.699 86.9336 253.004 88.3984 249.84 89.5312C246.676 90.625 243.023 91.1719 238.883 91.1719ZM315.289 26.6016H329.352V88.0664C329.352 93.8086 328.102 98.6719 325.602 102.656C323.141 106.68 319.684 109.727 315.23 111.797C310.777 113.906 305.602 114.961 299.703 114.961C297.164 114.961 294.41 114.609 291.441 113.906C288.512 113.203 285.68 112.09 282.945 110.566C280.25 109.082 278.004 107.148 276.207 104.766L283.18 95.625C285.289 98.0859 287.672 99.9414 290.328 101.191C292.984 102.48 295.855 103.125 298.941 103.125C302.066 103.125 304.723 102.539 306.91 101.367C309.137 100.234 310.836 98.5547 312.008 96.3281C313.219 94.1406 313.824 91.4453 313.824 88.2422V41.0742L315.289 26.6016ZM272.457 59.0625V57.832C272.457 52.9883 273.043 48.5938 274.215 44.6484C275.387 40.6641 277.066 37.2461 279.254 34.3945C281.48 31.543 284.156 29.3359 287.281 27.7734C290.445 26.2109 294 25.4297 297.945 25.4297C302.125 25.4297 305.641 26.1914 308.492 27.7148C311.383 29.2383 313.766 31.4062 315.641 34.2188C317.555 37.0312 319.039 40.3711 320.094 44.2383C321.188 48.0664 322.027 52.2852 322.613 56.8945V60.2344C322.066 64.7266 321.188 68.8477 319.977 72.5977C318.805 76.3477 317.242 79.6289 315.289 82.4414C313.336 85.2148 310.914 87.3633 308.023 88.8867C305.133 90.4102 301.734 91.1719 297.828 91.1719C293.922 91.1719 290.406 90.3711 287.281 88.7695C284.156 87.168 281.48 84.9219 279.254 82.0312C277.066 79.1406 275.387 75.7422 274.215 71.8359C273.043 67.9297 272.457 63.6719 272.457 59.0625ZM287.926 57.832V59.0625C287.926 61.7969 288.199 64.3555 288.746 66.7383C289.293 69.1211 290.133 71.2305 291.266 73.0664C292.398 74.8633 293.824 76.2695 295.543 77.2852C297.262 78.3008 299.312 78.8086 301.695 78.8086C304.898 78.8086 307.516 78.1445 309.547 76.8164C311.617 75.4492 313.18 73.5938 314.234 71.25C315.328 68.8672 316.031 66.1914 316.344 63.2227V54.0234C316.148 51.6797 315.719 49.5117 315.055 47.5195C314.43 45.5273 313.551 43.8086 312.418 42.3633C311.285 40.918 309.84 39.7852 308.082 38.9648C306.324 38.1445 304.234 37.7344 301.812 37.7344C299.469 37.7344 297.418 38.2617 295.66 39.3164C293.902 40.332 292.457 41.7578 291.324 43.5938C290.191 45.4297 289.332 47.5586 288.746 49.9805C288.199 52.4023 287.926 55.0195 287.926 57.832ZM371.773 91.1719C366.969 91.1719 362.652 90.3906 358.824 88.8281C354.996 87.2656 351.734 85.0977 349.039 82.3242C346.383 79.5117 344.332 76.25 342.887 72.5391C341.48 68.7891 340.777 64.7656 340.777 60.4688V58.125C340.777 53.2422 341.48 48.8086 342.887 44.8242C344.293 40.8008 346.285 37.3438 348.863 34.4531C351.441 31.5625 354.527 29.3359 358.121 27.7734C361.715 26.2109 365.68 25.4297 370.016 25.4297C374.508 25.4297 378.473 26.1914 381.91 27.7148C385.348 29.1992 388.219 31.3086 390.523 34.043C392.828 36.7773 394.566 40.0586 395.738 43.8867C396.91 47.6758 397.496 51.875 397.496 56.4844V62.9883H347.809V52.3242H382.262V51.1523C382.184 48.6914 381.715 46.4453 380.855 44.4141C379.996 42.3438 378.668 40.7031 376.871 39.4922C375.074 38.2422 372.75 37.6172 369.898 37.6172C367.594 37.6172 365.582 38.125 363.863 39.1406C362.184 40.1172 360.777 41.5234 359.645 43.3594C358.551 45.1562 357.73 47.3047 357.184 49.8047C356.637 52.3047 356.363 55.0781 356.363 58.125V60.4688C356.363 63.125 356.715 65.5859 357.418 67.8516C358.16 70.1172 359.234 72.0898 360.641 73.7695C362.086 75.4102 363.805 76.6992 365.797 77.6367C367.828 78.5352 370.133 78.9844 372.711 78.9844C375.953 78.9844 378.883 78.3594 381.5 77.1094C384.156 75.8203 386.461 73.9258 388.414 71.4258L396.207 79.5117C394.879 81.4648 393.082 83.3398 390.816 85.1367C388.59 86.9336 385.895 88.3984 382.73 89.5312C379.566 90.625 375.914 91.1719 371.773 91.1719Z" fill="#3273DC"/>
<path d="M469.098 42.9492V49.1016H417.242V42.9492H469.098ZM418.941 4.6875V90H411.734V4.6875H418.941ZM474.898 4.6875V90H467.691V4.6875H474.898ZM535.66 75.3516V26.6016H542.691V90H535.953L535.66 75.3516ZM536.949 63.6328L540.582 63.5156C540.582 67.5 540.113 71.1719 539.176 74.5312C538.238 77.8906 536.773 80.8203 534.781 83.3203C532.789 85.8203 530.211 87.7539 527.047 89.1211C523.883 90.4883 520.074 91.1719 515.621 91.1719C512.535 91.1719 509.703 90.7422 507.125 89.8828C504.586 88.9844 502.398 87.5781 500.562 85.6641C498.727 83.75 497.301 81.2695 496.285 78.2227C495.309 75.1758 494.82 71.4844 494.82 67.1484V26.6016H501.793V67.2656C501.793 70.6641 502.164 73.4961 502.906 75.7617C503.688 78.0273 504.742 79.8438 506.07 81.2109C507.438 82.5781 509 83.5547 510.758 84.1406C512.516 84.7266 514.41 85.0195 516.441 85.0195C521.598 85.0195 525.66 84.0234 528.629 82.0312C531.637 80.0391 533.766 77.4219 535.016 74.1797C536.305 70.8984 536.949 67.3828 536.949 63.6328ZM560.914 0H567.945V77.6953L567.477 90H560.914V0ZM612.066 57.7148V58.9453C612.066 63.6719 611.52 68.0078 610.426 71.9531C609.332 75.8984 607.75 79.3164 605.68 82.207C603.609 85.0586 601.07 87.2656 598.062 88.8281C595.094 90.3906 591.676 91.1719 587.809 91.1719C584.02 91.1719 580.66 90.5859 577.73 89.4141C574.801 88.2031 572.301 86.5039 570.23 84.3164C568.16 82.0898 566.5 79.4922 565.25 76.5234C564 73.5156 563.121 70.2148 562.613 66.6211V50.9766C563.199 47.1484 564.137 43.6719 565.426 40.5469C566.715 37.4219 568.375 34.7266 570.406 32.4609C572.477 30.1953 574.938 28.457 577.789 27.2461C580.68 26.0352 583.98 25.4297 587.691 25.4297C591.559 25.4297 594.996 26.1914 598.004 27.7148C601.051 29.1992 603.609 31.3672 605.68 34.2188C607.75 37.0312 609.332 40.4297 610.426 44.4141C611.52 48.3594 612.066 52.793 612.066 57.7148ZM604.977 58.9453V57.7148C604.977 54.0039 604.625 50.5664 603.922 47.4023C603.219 44.2383 602.105 41.4844 600.582 39.1406C599.098 36.7578 597.184 34.9023 594.84 33.5742C592.496 32.2461 589.684 31.582 586.402 31.582C583.043 31.582 580.172 32.1484 577.789 33.2812C575.445 34.375 573.492 35.8398 571.93 37.6758C570.406 39.4727 569.195 41.4453 568.297 43.5938C567.398 45.7422 566.734 47.8516 566.305 49.9219V68.1445C566.969 71.0742 568.121 73.8281 569.762 76.4062C571.402 78.9844 573.609 81.0742 576.383 82.6758C579.156 84.2383 582.535 85.0195 586.52 85.0195C589.723 85.0195 592.477 84.3555 594.781 83.0273C597.125 81.6992 599.039 79.8633 600.523 77.5195C602.047 75.1758 603.16 72.4219 603.863 69.2578C604.605 66.0938 604.977 62.6562 604.977 58.9453Z" fill="black"/>
</svg>
