<svg width="148" height="89" viewBox="0 0 148 89" fill="none" xmlns="http://www.w3.org/2000/svg">
<path d="M53.3281 58.9336H69.4414C69.0117 64.6367 67.4297 69.6953 64.6953 74.1094C61.9609 78.4844 58.1523 81.9219 53.2695 84.4219C48.3867 86.9219 42.4688 88.1719 35.5156 88.1719C30.1641 88.1719 25.3398 87.2344 21.043 85.3594C16.7852 83.4453 13.1328 80.7305 10.0859 77.2148C7.07812 73.6602 4.77344 69.4023 3.17188 64.4414C1.57031 59.4414 0.769531 53.8359 0.769531 47.625V41.1211C0.769531 34.9102 1.58984 29.3047 3.23047 24.3047C4.87109 19.3047 7.21484 15.0469 10.2617 11.5312C13.3477 7.97656 17.0391 5.24219 21.3359 3.32812C25.6719 1.41406 30.5156 0.457031 35.8672 0.457031C42.8203 0.457031 48.6992 1.74609 53.5039 4.32422C58.3086 6.86328 62.0391 10.3594 64.6953 14.8125C67.3516 19.2656 68.9531 24.3828 69.5 30.1641H53.3867C53.0742 26.5703 52.293 23.5234 51.043 21.0234C49.832 18.5234 47.9961 16.6289 45.5352 15.3398C43.1133 14.0117 39.8906 13.3477 35.8672 13.3477C32.7422 13.3477 29.9883 13.9336 27.6055 15.1055C25.2617 16.2773 23.3086 18.0352 21.7461 20.3789C20.1836 22.6836 19.0117 25.5742 18.2305 29.0508C17.4492 32.4883 17.0586 36.4727 17.0586 41.0039V47.625C17.0586 51.9609 17.4102 55.8477 18.1133 59.2852C18.8164 62.7227 19.9102 65.6328 21.3945 68.0156C22.8789 70.3984 24.793 72.2148 27.1367 73.4648C29.4805 74.7148 32.2734 75.3398 35.5156 75.3398C39.4609 75.3398 42.6641 74.7148 45.125 73.4648C47.625 72.2148 49.5195 70.3789 50.8086 67.957C52.1367 65.5352 52.9766 62.5273 53.3281 58.9336Z" fill="#3273DC"/>
<path d="M141.98 39.9492V46.1016H90.125V39.9492H141.98ZM91.8242 1.6875V87H84.6172V1.6875H91.8242ZM147.781 1.6875V87H140.574V1.6875H147.781Z" fill="black"/>
</svg>
